<svg width="17" height="17" viewBox="0 0 17 17" fill="none" xmlns="http://www.w3.org/2000/svg">
<path fill-rule="evenodd" clip-rule="evenodd" d="M8.95001 0.950195C6.82828 0.950195 4.79345 1.79305 3.29316 3.29334C1.79287 4.79363 0.950012 6.82846 0.950012 8.9502C0.950012 11.0719 1.79287 13.1068 3.29316 14.6071C4.79345 16.1073 6.82828 16.9502 8.95001 16.9502C11.0717 16.9502 13.1066 16.1073 14.6069 14.6071C16.1072 13.1068 16.95 11.0719 16.95 8.9502C16.95 6.82846 16.1072 4.79363 14.6069 3.29334C13.1066 1.79305 11.0717 0.950195 8.95001 0.950195ZM4.35382 4.354C5.5728 3.13502 7.22611 2.4502 8.95001 2.4502C10.6739 2.4502 12.3272 3.13502 13.5462 4.354C14.7652 5.57299 15.45 7.22629 15.45 8.9502C15.45 10.6741 14.7652 12.3274 13.5462 13.5464C12.3272 14.7654 10.6739 15.4502 8.95001 15.4502C7.22611 15.4502 5.5728 14.7654 4.35382 13.5464C3.13483 12.3274 2.45001 10.6741 2.45001 8.9502C2.45001 7.22629 3.13483 5.57299 4.35382 4.354ZM10.1834 5.56686C10.1834 5.15265 9.84759 4.81686 9.43338 4.81686C9.01917 4.81686 8.68338 5.15265 8.68338 5.56686V9.43353C8.68338 9.84774 9.01917 10.1835 9.43338 10.1835H12.3334C12.7476 10.1835 13.0834 9.84774 13.0834 9.43353C13.0834 9.01932 12.7476 8.68353 12.3334 8.68353H10.1834V5.56686Z" fill="#676879"/>
</svg>
